<svg version="1.1" id="Layer_1" xmlns="http://www.w3.org/2000/svg" xmlns:xlink="http://www.w3.org/1999/xlink" x="0px" y="0px"
	 width="100%" viewBox="0 0 896 896" enable-background="new 0 0 896 896" xml:space="preserve">
<path fill="#000000" opacity="1.000000" stroke="none" 
	d="
M525.296143,335.296722 
	C514.554443,346.760712 507.721741,360.342163 500.484772,373.645752 
	C490.219147,392.516876 480.053680,411.442688 469.905334,430.377197 
	C468.637756,432.742218 467.282776,434.356293 464.237030,434.329346 
	C450.741577,434.209961 437.244507,434.283051 423.748108,434.246643 
	C422.795074,434.244080 421.842926,433.919250 421.020844,433.768219 
	C420.075775,431.635834 421.463745,430.388031 422.264435,428.997833 
	C436.394196,404.464142 450.725403,380.044098 464.621216,355.378723 
	C477.437592,332.629517 497.392700,320.700348 522.319153,315.765381 
	C534.339111,313.385620 546.485413,313.526825 558.640015,313.690277 
	C559.598328,313.703156 560.553711,313.930939 561.743591,314.627960 
	C547.953003,318.542877 535.365601,324.399597 525.296143,335.296722 
z"/>
<path fill="#000000" opacity="1.000000" stroke="none" 
	d="
M330.749390,387.789886 
	C338.086609,375.074371 344.861633,362.438385 352.464905,350.322144 
	C365.152435,330.103851 384.570251,320.118225 407.396088,315.728363 
	C420.052216,313.294312 432.787598,313.417450 445.550690,313.848236 
	C445.638275,315.609772 444.650543,315.944672 443.681488,316.157928 
	C424.135376,320.459290 409.957977,332.065277 399.517181,348.693085 
	C387.465149,367.886841 377.573975,388.283173 366.610870,408.083221 
	C362.499939,415.507874 358.541046,423.016693 354.513031,430.487213 
	C353.557770,432.258850 352.668091,434.216644 350.267578,434.222595 
	C335.482513,434.259369 320.697327,434.241089 304.526337,434.241089 
	C312.758728,417.766663 322.082947,403.163849 330.749390,387.789886 
z"/>
<path fill="#000000" opacity="1.000000" stroke="none" 
	d="
M439.969604,378.903931 
	C430.610291,396.206665 421.424957,413.186035 412.288239,430.191528 
	C411.055389,432.486145 409.860962,434.342346 406.740448,434.314026 
	C393.086975,434.189880 379.431824,434.255280 365.777374,434.215271 
	C364.986359,434.212952 364.196228,433.887268 363.274475,433.682983 
	C362.862213,430.025421 365.432556,427.725555 366.923157,425.120026 
	C380.643188,401.137726 394.488861,377.227203 408.319946,353.308533 
	C420.901703,331.550354 440.702148,320.558136 464.590057,315.749664 
	C476.918671,313.267975 489.415802,313.509918 501.899963,313.712708 
	C502.483551,313.722198 503.062408,314.022614 503.645752,314.188202 
	C503.418610,315.709808 502.324951,315.924622 501.418365,316.125031 
	C479.107239,321.056732 464.394196,335.468872 453.487305,354.577972 
	C448.949860,362.527588 444.596130,370.582031 439.969604,378.903931 
z"/>
<path fill="#000000" opacity="1.000000" stroke="none" 
	d="
M605.246216,383.160767 
	C597.078247,399.018799 588.982971,414.500275 581.128418,430.102905 
	C579.549561,433.239166 577.622437,434.397705 574.165771,434.348114 
	C562.350830,434.178467 550.531738,434.310944 538.714478,434.266052 
	C537.130310,434.260010 535.371521,434.790192 533.908081,433.306366 
	C533.738586,430.825562 535.411255,429.033142 536.566528,427.108215 
	C551.384583,402.418365 564.484314,376.785126 578.119934,351.447296 
	C579.448914,348.977783 580.284058,346.231537 581.241760,343.575287 
	C583.755554,336.603027 581.566528,330.881073 576.347900,326.083008 
	C574.324158,324.222351 572.124390,322.553101 569.442566,320.330750 
	C575.367737,317.176300 581.030396,316.175293 586.783386,315.762451 
	C594.371826,315.217896 601.668030,316.708771 608.716858,319.539764 
	C620.270874,324.180145 625.326782,333.702087 622.758728,345.887299 
	C621.398926,352.339508 618.291992,358.025146 615.279663,363.772095 
	C611.958435,370.108337 608.693176,376.473969 605.246216,383.160767 
z"/>
<path fill="#000000" opacity="1.000000" stroke="none" 
	d="
M230.796539,496.134399 
	C230.930496,488.122101 230.930466,488.118011 238.304794,488.066925 
	C240.470154,488.051941 242.636276,488.036041 244.801102,488.074036 
	C254.440475,488.243134 254.137772,488.288055 255.348999,497.958344 
	C257.532288,515.389709 260.117493,532.770752 262.974243,550.187195 
	C265.382935,544.330505 265.670166,538.106018 266.579803,532.039124 
	C268.501129,519.224548 270.166412,506.370514 271.820374,493.517731 
	C272.307098,489.735352 274.029297,487.918823 277.987610,488.085602 
	C282.310272,488.267792 286.648987,488.193085 290.976959,488.083405 
	C294.266937,488.000000 295.882141,489.266907 295.875000,492.732208 
	C295.813629,522.548035 295.808716,552.364075 295.814941,582.180054 
	C295.815674,585.793396 294.603210,587.458252 290.523743,587.366577 
	C278.412323,587.094482 279.946259,588.145020 279.914062,577.027466 
	C279.861511,558.873901 279.899841,540.719971 279.492401,522.515320 
	C276.773651,540.336670 274.057861,558.158386 271.331146,575.978577 
	C271.079956,577.620117 270.439270,579.268677 270.528748,580.883606 
	C270.830383,586.327087 268.117798,587.611206 263.157257,587.379761 
	C255.636673,587.028992 255.802414,587.265686 254.669968,579.616394 
	C251.797531,560.213928 248.749832,540.837402 245.307846,521.459961 
	C245.307846,540.413147 245.312256,559.366333 245.305923,578.319519 
	C245.302963,587.165527 242.294281,589.365906 233.526047,587.166321 
	C230.215805,586.335999 230.817139,583.777527 230.811829,581.569397 
	C230.763016,561.247375 230.775986,540.925171 230.775909,520.603027 
	C230.775879,512.607361 230.788376,504.611694 230.796539,496.134399 
z"/>
<path fill="#000000" opacity="1.000000" stroke="none" 
	d="
M546.808777,388.720825 
	C539.136353,402.975281 531.630371,416.898590 524.154175,430.837891 
	C523.183411,432.647888 522.294739,434.307465 519.796143,434.290253 
	C506.139374,434.196167 492.482056,434.182709 478.825073,434.108002 
	C478.381958,434.105560 477.940826,433.741882 477.489380,433.542480 
	C476.766937,431.202576 478.426361,429.688904 479.414581,428.088959 
	C492.986725,406.114594 504.678680,383.076630 517.601379,360.737091 
	C523.694824,350.203339 530.039307,339.834686 539.006531,331.370209 
	C541.697937,328.829651 544.771484,326.900696 547.842529,324.891449 
	C552.846619,321.617554 557.595886,321.378815 562.657166,324.783844 
	C568.079285,328.431702 570.109619,333.593414 569.734131,339.791046 
	C569.406921,345.193542 567.321472,350.144165 564.823303,354.879089 
	C558.917603,366.072388 552.935608,377.225372 546.808777,388.720825 
z"/>
<path fill="#000000" opacity="1.000000" stroke="none" 
	d="
M571.742493,489.811768 
	C581.181396,493.255127 584.973206,500.540863 585.163818,509.388214 
	C585.569275,528.207825 585.500732,547.045776 585.200806,565.869446 
	C584.999390,578.508484 576.814575,586.543091 563.993164,587.150391 
	C556.844482,587.489014 549.665466,587.135315 542.502930,587.258606 
	C539.043640,587.318115 537.796387,585.801453 537.800964,582.450867 
	C537.841248,552.625183 537.819092,522.799316 537.762207,492.973572 
	C537.756958,490.248962 538.478577,488.312225 541.533508,488.282318 
	C551.499817,488.184723 561.515259,487.148254 571.742493,489.811768 
M568.783508,534.500000 
	C568.780334,527.333679 568.807434,520.167175 568.751160,513.001282 
	C568.738159,511.350403 568.757935,509.587128 568.213562,508.073029 
	C566.402527,503.035339 562.039978,503.305939 557.788330,503.337646 
	C555.164551,503.357208 554.325012,504.669434 554.328247,507.091980 
	C554.354980,527.424255 554.337769,547.756592 554.336365,568.088867 
	C554.336243,569.850647 554.608765,571.267273 556.758240,571.834595 
	C564.083679,573.768005 568.685791,570.511780 568.760437,562.998413 
	C568.851501,553.833130 568.782715,544.666199 568.783508,534.500000 
z"/>
<path fill="#000000" opacity="1.000000" stroke="none" 
	d="
M644.955200,588.356079 
	C628.696533,588.197327 620.634033,580.046631 620.615112,564.185852 
	C620.594116,546.541687 620.540344,528.897400 620.605164,511.253479 
	C620.674683,492.344299 635.820740,481.991760 653.751831,488.389526 
	C664.363220,492.175720 667.865356,500.755127 668.099915,510.741486 
	C668.525818,528.873962 668.567749,547.034180 668.071228,565.163696 
	C667.667297,579.910950 659.323486,587.935486 644.955200,588.356079 
M651.671875,558.421936 
	C651.653564,542.443604 651.721985,526.464355 651.568970,510.487335 
	C651.516907,505.050903 648.817749,502.332092 644.230469,502.263580 
	C639.594849,502.194366 637.229431,504.358337 637.177002,509.929871 
	C637.001587,528.566772 637.101318,547.206299 637.096619,565.844788 
	C637.095459,570.435608 639.459412,573.062073 643.941406,573.484619 
	C647.958984,573.863403 651.133911,570.619263 651.577515,565.878113 
	C651.778381,563.731506 651.650330,561.554138 651.671875,558.421936 
z"/>
<path fill="#000000" opacity="1.000000" stroke="none" 
	d="
M512.023865,537.000000 
	C512.022827,523.011597 511.994049,509.523132 512.032898,496.034851 
	C512.053711,488.797943 512.464844,488.420898 519.529663,488.140747 
	C528.049683,487.802917 528.258179,487.999084 528.255371,496.384399 
	C528.247803,518.698547 528.286072,541.012817 528.206299,563.326721 
	C528.178101,571.220642 526.590942,578.713013 519.927246,583.863586 
	C511.849213,590.107361 502.683777,589.736816 493.811981,586.397461 
	C485.419067,583.238342 482.063843,575.930725 481.621216,567.371826 
	C480.339172,542.582214 481.234070,517.769470 481.024475,492.967651 
	C480.998932,489.945038 482.289825,488.546082 485.400421,488.174133 
	C496.920807,486.796539 497.995026,487.660614 497.982422,499.198822 
	C497.959991,519.681152 497.933075,540.163452 497.922974,560.645752 
	C497.921967,562.642151 497.956970,564.643311 498.093781,566.634033 
	C498.389557,570.936829 500.666290,573.637512 505.038910,573.508728 
	C509.262726,573.384338 511.817444,570.868225 511.869873,566.471191 
	C511.984955,556.814880 511.980164,547.157166 512.023865,537.000000 
z"/>
<path fill="#000000" opacity="1.000000" stroke="none" 
	d="
M388.717072,557.290894 
	C393.960022,558.750427 391.839966,562.808472 392.157135,565.767944 
	C392.820801,571.960632 397.078613,575.025452 402.409241,572.852234 
	C405.255371,571.691956 406.322906,569.429199 406.652161,566.623657 
	C407.466553,559.685120 405.170593,553.816833 400.328247,548.931458 
	C395.408295,543.967712 390.171112,539.304382 385.437988,534.172668 
	C377.100281,525.132751 374.878845,514.405457 377.843475,502.593658 
	C380.369568,492.528931 388.239777,486.988403 399.933044,486.805084 
	C411.080383,486.630310 418.442322,491.702332 421.527588,501.682709 
	C425.662811,515.059631 424.352997,516.831177 410.613434,516.408447 
	C409.810883,516.383850 409.012360,516.229309 408.037384,516.114685 
	C407.642426,513.188171 407.333893,510.412811 406.880890,507.661285 
	C406.218628,503.638702 403.553802,502.189911 399.729736,502.256531 
	C395.820862,502.324646 394.007629,504.750122 393.448059,508.159393 
	C392.428497,514.371338 394.718567,519.545471 398.838257,524.124939 
	C403.965179,529.824158 410.238342,534.347168 415.102631,540.323547 
	C423.617615,550.785217 425.669342,562.480103 421.160797,574.994873 
	C417.325745,585.640137 407.877289,589.982361 394.493774,588.202332 
	C384.826843,586.916626 377.842987,579.271729 376.752747,568.782349 
	C375.622375,557.906372 375.622314,557.906372 388.717072,557.290894 
z"/>
<path fill="#000000" opacity="1.000000" stroke="none" 
	d="
M674.731079,565.898376 
	C674.721436,563.130432 674.721436,560.814880 674.721436,557.947754 
	C678.945801,557.661865 682.857483,557.318726 686.776672,557.160767 
	C689.231995,557.061768 690.364319,558.402283 690.311340,560.903320 
	C690.265686,563.062317 690.231628,565.259644 690.567688,567.380493 
	C691.209473,571.431152 693.909668,573.597351 697.871826,573.468018 
	C701.832764,573.338745 704.265442,571.037781 704.755798,566.914062 
	C705.674438,559.189636 702.905762,552.930176 697.416748,547.620544 
	C692.276306,542.648010 686.707397,538.110718 682.232788,532.456482 
	C675.090332,523.430847 673.195801,513.350159 676.200500,502.366119 
	C679.099121,491.769806 688.367615,485.966705 700.489258,486.888794 
	C712.553894,487.806580 719.596252,494.689514 721.027771,507.354492 
	C721.346802,510.176819 722.766907,514.295166 719.845093,515.664001 
	C716.021851,517.455078 711.301758,516.902527 707.115540,515.850281 
	C705.033997,515.327026 705.822388,512.717346 705.681335,510.969879 
	C705.407532,507.579193 705.109436,504.140198 701.398315,502.637390 
	C696.547668,500.673157 692.074097,503.597778 691.447144,509.175720 
	C690.760986,515.280273 693.493469,520.265015 697.452393,524.497437 
	C701.310913,528.622437 705.622742,532.320740 709.684082,536.259338 
	C718.616760,544.921997 722.524292,555.376526 721.333923,567.861938 
	C720.254517,579.183960 712.589294,587.388367 701.718079,588.291992 
	C686.748169,589.536194 678.399353,584.137207 675.478760,571.271057 
	C675.112671,569.658203 674.981018,567.992188 674.731079,565.898376 
z"/>
<path fill="#000000" opacity="1.000000" stroke="none" 
	d="
M328.992126,488.104492 
	C334.647369,488.216217 339.808624,488.499512 344.960266,488.377045 
	C348.383087,488.295654 349.133148,489.892426 349.237122,492.912842 
	C349.595642,503.330841 349.675781,503.328827 339.256744,503.345367 
	C334.927460,503.352264 330.597473,503.402924 326.269104,503.342377 
	C323.556183,503.304474 322.311432,504.481018 322.342468,507.231720 
	C322.406342,512.892395 322.422272,518.555298 322.334351,524.215332 
	C322.288727,527.150330 323.872101,527.925842 326.422546,527.900513 
	C330.584808,527.859070 334.749359,527.976074 338.910156,527.890930 
	C341.998138,527.827698 343.459076,528.965698 343.398682,532.274719 
	C343.157104,545.507385 345.136383,543.049194 332.845428,543.272156 
	C320.530731,543.495667 322.552765,541.845154 322.365692,553.988281 
	C322.296448,558.483093 322.471771,562.984436 322.303955,567.474182 
	C322.183990,570.683899 323.427826,572.006104 326.659821,571.940002 
	C332.485077,571.820801 338.316620,572.012268 344.142029,571.896790 
	C347.736084,571.825562 349.129883,573.313049 349.232513,576.937622 
	C349.524841,587.260620 349.638367,587.260803 339.536346,587.262878 
	C330.045074,587.264893 320.552002,587.150269 311.063416,587.308899 
	C307.184296,587.373779 305.791931,585.890015 305.803772,582.022766 
	C305.894135,552.550110 305.886993,523.076904 305.785553,493.604218 
	C305.772400,489.774628 307.212860,488.092773 311.011017,488.133331 
	C316.837952,488.195496 322.666321,488.120392 328.992126,488.104492 
z"/>
<path fill="#000000" opacity="1.000000" stroke="none" 
	d="
M202.224731,527.900879 
	C206.187881,527.908997 209.687424,528.013611 213.179703,527.897949 
	C216.606445,527.784485 218.070694,529.408447 217.974747,532.701843 
	C217.969925,532.867920 217.982193,533.034729 217.991409,533.200928 
	C218.543823,543.144592 218.414551,543.283325 208.595886,543.280151 
	C196.394974,543.276184 196.393906,543.276123 196.394775,555.372498 
	C196.395035,559.035400 196.659592,562.720642 196.342331,566.355469 
	C195.946854,570.886597 197.895279,572.186829 202.137741,571.978027 
	C207.618668,571.708191 213.124878,572.000610 218.616776,571.886536 
	C222.004547,571.816223 223.382706,573.199951 223.342392,576.633484 
	C223.197113,589.005920 224.138550,587.147705 213.086121,587.257507 
	C204.096344,587.346863 195.100967,587.109131 186.115860,587.331177 
	C181.945877,587.434265 180.412994,586.429260 180.438065,581.779846 
	C180.593307,552.982300 180.359863,524.182739 180.289871,495.383820 
	C180.285065,493.406158 180.559479,491.427826 180.715302,489.295685 
	C184.372147,487.964874 188.079758,488.418182 191.625885,488.284607 
	C200.432220,487.952881 209.258484,488.192261 218.074646,488.061066 
	C221.857651,488.004761 223.412567,489.469513 223.353775,493.387207 
	C223.179520,504.998810 224.112320,503.204834 213.528580,503.340790 
	C209.200531,503.396393 204.869324,503.415131 200.542847,503.312408 
	C197.559860,503.241577 196.318695,504.563354 196.368149,507.503601 
	C196.452133,512.497070 196.607193,517.504272 196.335526,522.484070 
	C196.110397,526.611145 197.618149,528.426147 202.224731,527.900879 
z"/>
<path fill="#000000" opacity="1.000000" stroke="none" 
	d="
M442.815887,547.000000 
	C442.814484,534.010254 442.664948,521.517883 442.892822,509.032318 
	C442.972961,504.640961 441.451324,502.805603 437.116058,503.350098 
	C436.788239,503.391296 436.450623,503.355652 436.117554,503.353912 
	C426.581116,503.303894 424.896973,501.035095 426.887878,491.357330 
	C427.364166,489.042145 428.781067,488.275848 430.728790,488.264771 
	C444.381500,488.187347 458.034729,488.170502 471.687683,488.183777 
	C474.011749,488.186035 475.152710,489.285980 475.387024,491.843445 
	C476.405945,502.962524 476.266144,503.417236 465.114655,503.226807 
	C460.338348,503.145264 459.227875,504.941681 459.259155,509.375549 
	C459.428314,533.354553 459.235413,557.336243 459.416931,581.315125 
	C459.451050,585.827087 458.177490,587.440063 453.513000,587.347534 
	C441.500397,587.109253 442.875946,587.899109 442.837738,576.975891 
	C442.803375,567.150635 442.821411,557.325317 442.815887,547.000000 
z"/>
<path fill="#000000" opacity="1.000000" stroke="none" 
	d="
M611.307861,498.064026 
	C611.290833,525.692627 611.284851,552.829407 611.252808,579.966248 
	C611.244263,587.225281 611.207764,587.225220 604.159119,587.259399 
	C594.723267,587.305115 594.708862,587.305115 594.703003,577.814087 
	C594.685669,550.011353 594.781250,522.207886 594.575806,494.406555 
	C594.540222,489.592255 596.120605,487.593201 600.843384,488.084076 
	C601.172607,488.118286 601.508789,488.086334 601.841736,488.082977 
	C611.311279,487.986755 611.311279,487.986755 611.307861,498.064026 
z"/>
</svg>